<svg xmlns="http://www.w3.org/2000/svg" width="274.436" height="233.31"><path data-name="Path 113" d="M200.424 78.735c-27.17 8.063-59.165-6.003-71.563-31.475-4.33-8.893-6.534-18.928-12.527-26.782C108.073 9.637 93.466 4.775 79.914 6.2s-26.05 8.439-36.217 17.506C20.993 43.936 8.81 74.944 10.124 105.334c1.316 30.373 15.664 59.682 37.79 80.541 22.11 20.858 51.6 33.346 81.852 36.381 35.447 3.54 73.031-6.437 98.897-30.914 16.883-15.971 28.14-37.315 33.983-59.814 5.843-22.482 6.449-46.088 4.06-69.193-.964-9.198-1.827-25.278-9.435-31.733-7.848-6.67-13.792-.833-16.315 6.696-6.442 19.14-20.754 35.563-40.532 41.437z" fill="rgba(252,237,234,0.7)"/></svg>