<svg xmlns="http://www.w3.org/2000/svg" width="328.395" height="311.835"><path data-name="Path 21" d="M237.507 148.263c-28.031-4.175-51.085-30.445-51.556-58.77-.167-9.89 2.078-19.916-.034-29.567-2.906-13.317-14.09-23.896-26.974-28.332s-27.177-3.361-40.222.56c-29.127 8.739-53.273 31.693-64.925 59.791-11.644 28.084-11.027 60.71.211 88.966 11.223 28.248 32.673 52.03 58.808 67.565 30.63 18.187 68.909 25.03 102.695 13.778 22.052-7.34 41.274-21.928 56.078-39.848 14.797-17.907 25.322-39.045 32.922-60.995 3.014-8.743 9.028-23.682 4.86-32.747-4.294-9.363-12.147-6.584-17.616-.826-13.928 14.623-33.84 23.46-54.247 20.425z" fill="rgba(252,237,234,0.7)"/></svg>