<svg xmlns="http://www.w3.org/2000/svg" width="184.096" height="151.683"><path data-name="Path 21" d="M134.791 44.832c-18.888 7.453-42.6-.59-53.04-18-3.646-6.076-5.845-13.1-10.613-18.332-6.574-7.222-17.3-9.779-26.885-7.916S26.187 8.234 19.498 15.34C4.557 31.195-2.202 54.087.634 75.695s14.906 41.618 32 55.123 38.909 20.577 60.69 20.855c25.519.312 51.721-9.154 68.653-28.239 11.052-12.453 17.753-28.389 20.519-44.812s1.725-33.3-1.423-49.638c-1.261-6.5-2.882-17.927-8.715-22.059-6.018-4.271-9.9.266-11.226 5.8-3.403 14.064-12.592 26.679-26.341 32.107z" fill="rgba(234,238,252,0.77)"/></svg>