<svg xmlns="http://www.w3.org/2000/svg" width="368.446" height="383.644"><path data-name="Path 55" d="M268.505 33.152c-41.42-19.277-90.303-17.49-133.839-3.694-52.96 16.802-103.35 55.726-114.41 110.177-6.828 33.587 2.168 68.695 17.02 99.6 23.607 49.027 63.703 91.57 114.742 110.43 51.022 18.863 112.98 11.006 152.895-25.976 39.894-36.983 51.302-103.672 20.048-148.219-9.258-13.205-27.06-33.036-12.083-48.754 7.136-7.49 20.122-4.53 22.719-15.87 2.942-12.834-16.865-36.765-24.474-45.522a129.258 129.258 0 00-42.618-32.172z" fill="rgba(234,238,252,0.76)"/></svg>