<svg xmlns="http://www.w3.org/2000/svg" width="161.746" height="150.76"><path data-name="Path 64" d="M109.454 1.934c13.355 2.324 26.831 7.214 36.129 17.082 9.929 10.53 13.846 25.378 15.379 39.763 1.5 14.077 1.032 28.514-3.056 42.06s-11.973 26.19-23.394 34.546c-16.662 12.163-38.493 14.007-59.1 14.958-11.672.531-23.455.912-34.936-1.232s-22.773-7.013-30.708-15.59-11.986-21.187-8.519-32.342c4.278-13.726 18.455-22.583 22.773-36.3 5.45-17.273-5.591-43.984 14.638-54.534C59.192-.361 87.102-1.964 109.454 1.934z" fill="rgba(249,234,231,0.84)"/></svg>