<svg xmlns="http://www.w3.org/2000/svg" width="313.353" height="312.348"><path data-name="Path 91" d="M238.885 89.588c-9.562-11.867-22.438-20.539-35.427-28.506-15.17-9.318-31.046-18.049-48.411-22.037s-36.553-2.805-51.61 6.695-24.765 28.346-20.446 45.628c2.48 9.916 9.132 18.635 10.335 28.792 1.953 16.62-10.858 30.868-17.057 46.401-11.179 27.99.715 61.851 23.898 81.117s55.274 25.315 85.201 21.708c11.182-1.353 22.461-4.054 31.885-10.225s16.746-16.302 17.343-27.543c.618-11.695-5.848-22.553-7.76-34.114-3.457-20.862 7.925-39.96 18.953-56.642 11.133-16.828 5.412-36.014-6.904-51.274z" fill="#fff1e5"/></svg>