<svg xmlns="http://www.w3.org/2000/svg" width="208" height="189.705"><path data-name="Path 91" d="M117.216.738C103.663-1.2 89.89.992 76.475 3.714c-15.676 3.172-31.455 7.163-45.308 15.18S5.433 39.448 1.361 54.916s1.1 33.8 14.522 42.505c7.705 4.995 17.417 6.644 24.431 12.584 11.466 9.724 11.777 26.934 17.221 40.937 9.8 25.238 38.364 40.2 65.4 38.653s51.825-17.233 69.277-37.938c6.517-7.74 12.273-16.425 14.684-26.253s1.015-20.97-5.479-28.721c-6.759-8.063-17.66-11.235-26-17.66-15.05-11.595-19.272-31.108-22.247-48.826-3-17.878-18.514-26.979-35.954-29.459z" fill="#fdf6f5"/></svg>