<svg xmlns="http://www.w3.org/2000/svg" width="101.25" height="30"><defs><clipPath id="clip-path"><path id="Rectangle_35" fill="none" d="M0 0h101.25v30H0z" transform="translate(83.115 458.823)"/></clipPath><style>.cls-4{fill:#fff}</style></defs><g id="Group_671" transform="translate(-83.115 -458.823)"><g id="Group_670" clip-path="url(#clip-path)"><path id="Path_1447" d="M183.628 485.237a2.832 2.832 0 01-2.865 2.835h-94.1a2.743 2.743 0 01-2.8-2.8v-22.906a2.74 2.74 0 012.8-2.794h94.1a2.787 2.787 0 012.852 2.794v22.908z"/><path id="Path_1448" d="M105.711 473.66a4.349 4.349 0 012.071-3.648 4.452 4.452 0 00-3.507-1.9c-1.476-.155-2.907.883-3.658.883s-1.925-.868-3.171-.842a4.67 4.67 0 00-3.929 2.4c-1.7 2.942-.432 7.266 1.195 9.644.815 1.165 1.766 2.466 3.012 2.419 1.218-.05 1.673-.776 3.146-.776 1.457 0 1.884.776 3.155.748 1.307-.022 2.13-1.171 2.916-2.347a9.609 9.609 0 001.335-2.716 4.2 4.2 0 01-2.565-3.866" class="cls-4"/><path id="Path_1449" d="M103.311 466.552a4.278 4.278 0 00.979-3.067 4.354 4.354 0 00-2.818 1.458 4.069 4.069 0 00-1 2.954 3.6 3.6 0 002.844-1.345" class="cls-4"/><path id="Path_1450" d="M123.348 482.451h-1.7l-.933-2.933h-3.245l-.889 2.933h-1.658l3.213-9.982h1.984zm-2.916-4.162l-.844-2.607q-.133-.4-.5-1.879h-.03c-.1.425-.257 1.051-.473 1.879l-.83 2.607z" class="cls-4"/><path id="Path_1451" d="M131.611 478.763a4.09 4.09 0 01-.992 2.9 2.9 2.9 0 01-2.206.947 2.21 2.21 0 01-2.044-1.021h-.029v3.79h-1.6v-7.759q0-1.155-.059-2.369h1.406l.089 1.14h.03a2.845 2.845 0 014.553-.281 3.97 3.97 0 01.851 2.65m-1.628.059a2.971 2.971 0 00-.474-1.733 1.639 1.639 0 00-1.392-.71 1.66 1.66 0 00-1.073.392 1.82 1.82 0 00-.63 1.03 2.118 2.118 0 00-.074.488v1.2a1.919 1.919 0 00.481 1.325 1.6 1.6 0 001.252.54 1.636 1.636 0 001.406-.7 3.062 3.062 0 00.5-1.837" class="cls-4"/><path id="Path_1452" d="M139.889 478.763a4.091 4.091 0 01-.993 2.9 2.9 2.9 0 01-2.206.947 2.206 2.206 0 01-2.043-1.021h-.029v3.79h-1.6v-7.759q0-1.155-.059-2.369h1.406l.089 1.14h.03a2.845 2.845 0 014.553-.281 3.97 3.97 0 01.851 2.65m-1.629.059a2.97 2.97 0 00-.474-1.733 1.637 1.637 0 00-1.391-.71 1.662 1.662 0 00-1.074.392 1.824 1.824 0 00-.629 1.03 2.065 2.065 0 00-.074.488v1.2a1.923 1.923 0 00.48 1.325 1.6 1.6 0 001.253.54 1.636 1.636 0 001.406-.7 3.076 3.076 0 00.5-1.837" class="cls-4"/><path id="Path_1453" d="M149.144 479.652a2.661 2.661 0 01-.886 2.073 3.93 3.93 0 01-2.719.874 4.761 4.761 0 01-2.587-.622l.371-1.333a4.377 4.377 0 002.312.636 2.179 2.179 0 001.407-.407 1.33 1.33 0 00.5-1.09 1.388 1.388 0 00-.415-1.023 3.832 3.832 0 00-1.377-.772q-2.622-.98-2.62-2.863a2.533 2.533 0 01.918-2.017 3.624 3.624 0 012.443-.787 4.854 4.854 0 012.265.474l-.4 1.3a3.937 3.937 0 00-1.911-.46 1.93 1.93 0 00-1.317.416 1.18 1.18 0 00-.4.9 1.217 1.217 0 00.459.977 5.133 5.133 0 001.451.771 4.927 4.927 0 011.9 1.214 2.545 2.545 0 01.606 1.733" class="cls-4"/><path id="Path_1454" d="M154.431 476.453h-1.763v3.495q0 1.332.934 1.333a2.923 2.923 0 00.71-.074l.044 1.214a3.612 3.612 0 01-1.243.177 1.922 1.922 0 01-1.482-.576 2.845 2.845 0 01-.532-1.941v-3.628h-1.051v-1.2h1.052v-1.317l1.569-.475v1.792h1.763z" class="cls-4"/><path id="Path_1455" d="M162.383 478.793a3.943 3.943 0 01-.947 2.724 3.383 3.383 0 01-2.637 1.1 3.217 3.217 0 01-2.524-1.051 3.828 3.828 0 01-.941-2.65 3.913 3.913 0 01.97-2.74 3.357 3.357 0 012.614-1.067 3.288 3.288 0 012.547 1.052 3.794 3.794 0 01.918 2.636m-1.659.052a3.249 3.249 0 00-.429-1.709 1.582 1.582 0 00-1.437-.861 1.6 1.6 0 00-1.465.861 3.308 3.308 0 00-.429 1.739 3.239 3.239 0 00.429 1.707 1.613 1.613 0 001.452.861 1.6 1.6 0 001.435-.876 3.241 3.241 0 00.444-1.722" class="cls-4"/><path id="Path_1456" d="M167.581 476.66a2.806 2.806 0 00-.5-.044 1.515 1.515 0 00-1.3.638 2.394 2.394 0 00-.4 1.42v3.776h-1.6l.014-4.93q0-1.245-.059-2.266h1.392l.059 1.377h.044a2.463 2.463 0 01.8-1.14 1.932 1.932 0 011.156-.385 2.678 2.678 0 01.4.028z" class="cls-4"/><path id="Path_1457" d="M174.732 478.511a3.826 3.826 0 01-.058.726h-4.8a2.091 2.091 0 00.7 1.63 2.378 2.378 0 001.569.5 5.312 5.312 0 001.941-.34l.25 1.111a6.015 6.015 0 01-2.413.444 3.487 3.487 0 01-2.628-.985 3.638 3.638 0 01-.955-2.643 4.121 4.121 0 01.889-2.711 3.062 3.062 0 012.516-1.154 2.681 2.681 0 012.356 1.154 3.891 3.891 0 01.635 2.266m-1.525-.414a2.176 2.176 0 00-.31-1.229 1.4 1.4 0 00-1.274-.667 1.52 1.52 0 00-1.273.652 2.373 2.373 0 00-.474 1.244z" class="cls-4"/><path id="Path_1458" d="M119.84 466.329a2.461 2.461 0 01-.793 1.994 3.157 3.157 0 01-2.087.618 9.481 9.481 0 01-1.15-.059v-4.823a8.434 8.434 0 011.353-.1 2.916 2.916 0 011.943.56 2.261 2.261 0 01.734 1.811m-.829.022a1.6 1.6 0 00-1.782-1.775 3.364 3.364 0 00-.633.051v3.666a4.138 4.138 0 00.531.022 1.851 1.851 0 001.392-.5 2.005 2.005 0 00.492-1.462" class="cls-4"/><path id="Path_1459" d="M124.234 467.1a1.941 1.941 0 01-.465 1.338 1.665 1.665 0 01-1.3.539 1.582 1.582 0 01-1.24-.517 1.88 1.88 0 01-.462-1.3 1.92 1.92 0 01.477-1.346 1.648 1.648 0 011.283-.523 1.616 1.616 0 011.251.516 1.866 1.866 0 01.452 1.3m-.815.025a1.6 1.6 0 00-.211-.839.776.776 0 00-.706-.424.788.788 0 00-.72.424 1.623 1.623 0 00-.211.853 1.6 1.6 0 00.211.84.793.793 0 00.713.423.785.785 0 00.7-.431 1.586 1.586 0 00.219-.846" class="cls-4"/><path id="Path_1460" d="M130.127 465.362l-1.107 3.538h-.72l-.458-1.534a11.414 11.414 0 01-.284-1.143h-.014a8.447 8.447 0 01-.284 1.143l-.488 1.534h-.728L125 465.362h.808l.4 1.68q.146.6.241 1.136h.014c.059-.3.155-.673.292-1.129l.5-1.687h.64l.48 1.651q.175.6.284 1.165h.022a10.857 10.857 0 01.24-1.165l.43-1.651z" class="cls-4"/><path id="Path_1461" d="M134.2 468.9h-.786v-2.024c0-.625-.237-.936-.713-.936a.708.708 0 00-.567.257.91.91 0 00-.219.606v2.1h-.786v-2.524q0-.465-.027-1.012h.689l.037.554h.022a1.119 1.119 0 01.408-.427 1.328 1.328 0 01.713-.2 1.129 1.129 0 01.822.32 1.555 1.555 0 01.407 1.171z" class="cls-4"/><path id="Rectangle_34" d="M0 0h.787v5.159H0z" class="cls-4" transform="translate(135.583 463.739)"/><path id="Path_1462" d="M141 467.1a1.933 1.933 0 01-.467 1.338 1.66 1.66 0 01-1.3.539 1.587 1.587 0 01-1.241-.517 1.888 1.888 0 01-.46-1.3 1.924 1.924 0 01.475-1.346 1.654 1.654 0 011.285-.523 1.617 1.617 0 011.251.516 1.871 1.871 0 01.452 1.3m-.815.025a1.6 1.6 0 00-.211-.839.776.776 0 00-.706-.424.79.79 0 00-.721.424 1.632 1.632 0 00-.21.853 1.607 1.607 0 00.21.84.8.8 0 00.713.423.785.785 0 00.706-.431 1.586 1.586 0 00.219-.846" class="cls-4"/><path id="Path_1463" d="M144.8 468.9h-.706l-.058-.408h-.022a1.212 1.212 0 01-1.032.487 1.063 1.063 0 01-.809-.32 1 1 0 01-.276-.72 1.1 1.1 0 01.543-.99 2.806 2.806 0 011.523-.334v-.066q0-.7-.733-.7a1.648 1.648 0 00-.922.262l-.16-.517a2.273 2.273 0 011.213-.3q1.389 0 1.387 1.463v1.3a5.491 5.491 0 00.052.844m-.815-1.216v-.545q-1.3-.022-1.3.713a.529.529 0 00.153.414.545.545 0 00.382.138.794.794 0 00.481-.163.669.669 0 00.271-.418.564.564 0 00.015-.139" class="cls-4"/><path id="Path_1464" d="M149.268 468.9h-.7l-.037-.567h-.022a1.175 1.175 0 01-1.134.648 1.329 1.329 0 01-1.062-.5 1.958 1.958 0 01-.421-1.3 2.052 2.052 0 01.457-1.39 1.41 1.41 0 011.09-.494 1.06 1.06 0 011 .481h.015v-2.031h.785v4.2c0 .345.01.662.03.953m-.815-1.491v-.589a1.113 1.113 0 00-.022-.248.891.891 0 00-.286-.477.769.769 0 00-.525-.192.8.8 0 00-.69.349 1.485 1.485 0 00-.253.894 1.4 1.4 0 00.242.852.805.805 0 00.685.35.754.754 0 00.622-.292.976.976 0 00.227-.647" class="cls-4"/><path id="Path_1465" d="M155.99 467.1a1.938 1.938 0 01-.467 1.338 1.661 1.661 0 01-1.294.539 1.58 1.58 0 01-1.241-.517 1.884 1.884 0 01-.461-1.3 1.928 1.928 0 01.475-1.346 1.654 1.654 0 011.284-.523 1.621 1.621 0 011.252.516 1.866 1.866 0 01.452 1.3m-.816.025a1.6 1.6 0 00-.211-.839.776.776 0 00-.705-.424.787.787 0 00-.721.424 1.632 1.632 0 00-.211.853 1.607 1.607 0 00.211.84.8.8 0 00.714.423.783.783 0 00.7-.431 1.577 1.577 0 00.219-.846" class="cls-4"/><path id="Path_1466" d="M160.216 468.9h-.787v-2.024c0-.625-.238-.936-.712-.936a.707.707 0 00-.568.257.91.91 0 00-.219.606v2.1h-.785v-2.524q0-.465-.029-1.012h.691l.037.554h.022a1.1 1.1 0 01.408-.427 1.321 1.321 0 01.711-.2 1.128 1.128 0 01.823.32 1.559 1.559 0 01.408 1.171z" class="cls-4"/><path id="Path_1467" d="M165.505 465.951h-.865v1.717c0 .437.151.654.458.654a1.362 1.362 0 00.348-.036l.022.6a1.772 1.772 0 01-.611.088.94.94 0 01-.727-.283 1.4 1.4 0 01-.262-.954v-1.782h-.516v-.589h.516v-.648l.772-.232v.88h.865z" class="cls-4"/><path id="Path_1468" d="M169.665 468.9h-.785v-2.01c0-.633-.237-.95-.714-.95a.749.749 0 00-.748.551.93.93 0 00-.037.283v2.126h-.781v-5.158h.785v2.132h.015a1.187 1.187 0 011.062-.582 1.1 1.1 0 01.808.32 1.61 1.61 0 01.4 1.186z" class="cls-4"/><path id="Path_1469" d="M173.959 466.962a1.985 1.985 0 01-.029.357h-2.358a1.023 1.023 0 00.342.8 1.167 1.167 0 00.77.247 2.572 2.572 0 00.954-.168l.123.547a2.977 2.977 0 01-1.185.217 1.72 1.72 0 01-1.292-.483 1.791 1.791 0 01-.469-1.3 2.025 2.025 0 01.437-1.332 1.5 1.5 0 011.236-.567 1.315 1.315 0 011.157.567 1.912 1.912 0 01.314 1.113m-.75-.2a1.081 1.081 0 00-.153-.6.685.685 0 00-.625-.328.747.747 0 00-.627.321 1.177 1.177 0 00-.232.611z" class="cls-4"/></g></g></svg>