<svg xmlns="http://www.w3.org/2000/svg" width="100" height="30"><defs><linearGradient id="linear-gradient" x1=".915" x2="-.383" y1="184.847" y2="184.177" gradientUnits="objectBoundingBox"><stop offset="0" stop-color="#2987ca"/><stop offset=".007" stop-color="#2989cb"/><stop offset=".26" stop-color="#24ade7"/><stop offset=".512" stop-color="#25bdf0"/><stop offset=".76" stop-color="#3fbfe5"/><stop offset="1" stop-color="#45c0e4"/></linearGradient><linearGradient id="linear-gradient-2" x1="1.076" x2="-1.305" y1="539.464" y2="539.464" gradientUnits="objectBoundingBox"><stop offset="0" stop-color="gold"/><stop offset=".409" stop-color="#ffad00"/><stop offset=".775" stop-color="#fc9100"/><stop offset="1" stop-color="#fa8708"/></linearGradient><linearGradient id="linear-gradient-3" x1=".862" x2="-.501" y1="358.302" y2="356.533" gradientUnits="objectBoundingBox"><stop offset="0" stop-color="#e72638"/><stop offset="1" stop-color="#b10551"/></linearGradient><linearGradient id="linear-gradient-4" x1="-.188" x2=".421" y1="361.032" y2="360.242" gradientUnits="objectBoundingBox"><stop offset="0" stop-color="#36915d"/><stop offset=".068" stop-color="#35985c"/><stop offset=".476" stop-color="#4ead5c"/><stop offset=".801" stop-color="#5db055"/><stop offset="1" stop-color="#64b253"/></linearGradient><style>.cls-3{fill:#fff;stroke:#fff;stroke-miterlimit:10;stroke-width:.2px}.cls-10{fill:#040505;isolation:isolate;opacity:.12}</style></defs><g id="Group_669" transform="translate(-3731.443 1903.138)"><rect id="Rectangle_33" width="100" height="30" fill="#030504" rx="5" transform="translate(3731.443 -1903.138)"/><g id="Group_666" transform="translate(3762.026 -1898.06)"><path id="Path_1430" d="M3777.282-1893.774a2 2 0 01-.551 1.481 2.155 2.155 0 01-1.631.656 2.233 2.233 0 01-1.633-.666 2.232 2.232 0 01-.673-1.652 2.232 2.232 0 01.673-1.651 2.231 2.231 0 011.633-.666 2.286 2.286 0 01.911.186 1.825 1.825 0 01.694.5l-.39.391a1.5 1.5 0 00-1.215-.527 1.688 1.688 0 00-1.212.493 1.7 1.7 0 00-.512 1.28 1.7 1.7 0 00.512 1.28 1.688 1.688 0 001.212.493 1.681 1.681 0 001.239-.5 1.4 1.4 0 00.372-.9h-1.611v-.533h2.151a1.922 1.922 0 01.031.335z" class="cls-3" transform="translate(-3772.795 1896.272)"/><path id="Path_1431" d="M3782.559-1895.592h-2.021v1.407h1.822v.533h-1.822v1.407h2.021v.545h-2.591v-4.437h2.591z" class="cls-3" transform="translate(-3774.663 1896.237)"/><path id="Path_1432" d="M3786.084-1891.7h-.57v-3.892h-1.24v-.546h3.049v.546h-1.24z" class="cls-3" transform="translate(-3775.784 1896.237)"/><path id="Path_1433" d="M3791.381-1891.7v-4.437h.57v4.438z" class="cls-3" transform="translate(-3777.635 1896.237)"/><path id="Path_1434" d="M3794.935-1891.7h-.571v-3.892h-1.24v-.546h3.049v.546h-1.239z" class="cls-3" transform="translate(-3778.089 1896.237)"/><path id="Path_1435" d="M3803.677-1892.309a2.176 2.176 0 01-1.627.672 2.173 2.173 0 01-1.626-.672 2.269 2.269 0 01-.654-1.646 2.267 2.267 0 01.654-1.645 2.174 2.174 0 011.626-.673 2.176 2.176 0 011.625.676 2.267 2.267 0 01.656 1.642 2.274 2.274 0 01-.654 1.646zm-2.833-.371a1.63 1.63 0 001.205.5 1.627 1.627 0 001.205-.5 1.734 1.734 0 00.494-1.274 1.733 1.733 0 00-.494-1.274 1.627 1.627 0 00-1.205-.5 1.631 1.631 0 00-1.205.5 1.738 1.738 0 00-.493 1.274 1.739 1.739 0 00.493 1.274z" class="cls-3" transform="translate(-3779.819 1896.272)"/><path id="Path_1436" d="M3807.018-1891.7v-4.437h.695l2.156 3.452h.024l-.024-.855v-2.6h.57v4.438h-.595l-2.256-3.619h-.024l.024.855v2.764z" class="cls-3" transform="translate(-3781.707 1896.237)"/></g><path id="Path_1437" fill="#fff" d="M3792.523-1882.611a3.1 3.1 0 00-3.157 3.146 3.108 3.108 0 003.157 3.146 3.108 3.108 0 003.157-3.146 3.1 3.1 0 00-3.157-3.146zm0 5.052a1.819 1.819 0 01-1.775-1.907 1.812 1.812 0 011.775-1.906 1.813 1.813 0 011.776 1.906 1.82 1.82 0 01-1.776 1.907zm-6.888-5.052a3.1 3.1 0 00-3.158 3.146 3.108 3.108 0 003.158 3.146 3.107 3.107 0 003.157-3.146 3.1 3.1 0 00-3.156-3.146zm0 5.052a1.82 1.82 0 01-1.776-1.907 1.813 1.813 0 011.776-1.906 1.812 1.812 0 011.775 1.906 1.819 1.819 0 01-1.774 1.907zm-8.194-4.087v1.334h3.194a2.788 2.788 0 01-.727 1.68 3.269 3.269 0 01-2.467.977 3.5 3.5 0 01-3.5-3.551 3.5 3.5 0 013.5-3.551 3.4 3.4 0 012.407.953l.941-.942a4.654 4.654 0 00-3.348-1.346 4.953 4.953 0 00-4.957 4.885 4.953 4.953 0 004.957 4.885 4.468 4.468 0 003.408-1.37 4.41 4.41 0 001.155-3.122 4.38 4.38 0 00-.071-.834zm33.509 1.037a2.923 2.923 0 00-2.693-2 2.989 2.989 0 00-2.967 3.146 3.078 3.078 0 003.122 3.146 3.128 3.128 0 002.621-1.394l-1.073-.714a1.8 1.8 0 01-1.549.87 1.6 1.6 0 01-1.525-.953l4.206-1.74zm-4.289 1.048a1.725 1.725 0 011.644-1.835 1.219 1.219 0 011.168.668zm-3.42 3.051h1.382v-9.246h-1.382zm-2.264-5.4h-.048a2.178 2.178 0 00-1.656-.7 3.128 3.128 0 00-3.015 3.157 3.114 3.114 0 003.015 3.134 2.145 2.145 0 001.656-.714h.048v.453c0 1.2-.643 1.847-1.68 1.847a1.74 1.74 0 01-1.584-1.12l-1.2.5a3 3 0 002.788 1.859c1.62 0 2.991-.953 2.991-3.277v-5.648h-1.311zm-1.585 4.349a1.805 1.805 0 01-1.751-1.895 1.819 1.819 0 011.751-1.918 1.772 1.772 0 011.68 1.918 1.758 1.758 0 01-1.679 1.897zm18.032-8.2h-3.307v9.246h1.38v-3.5h1.927a2.929 2.929 0 003.033-2.871 2.929 2.929 0 00-3.032-2.87zm.035 4.456h-1.959v-3.169h1.962a1.6 1.6 0 011.618 1.585 1.611 1.611 0 01-1.619 1.589zm8.529-1.328a2.591 2.591 0 00-2.462 1.416l1.225.512a1.308 1.308 0 011.261-.678 1.329 1.329 0 011.451 1.189v.1a3.049 3.049 0 00-1.439-.357c-1.32 0-2.664.725-2.664 2.082a2.136 2.136 0 002.3 2.034 1.947 1.947 0 001.76-.9h.047v.714h1.333v-3.545a2.537 2.537 0 00-2.81-2.562zm-.167 5.067c-.452 0-1.083-.226-1.083-.785 0-.714.785-.987 1.464-.987a2.457 2.457 0 011.26.309 1.672 1.672 0 01-1.639 1.468zm7.827-4.865l-1.582 4.009h-.048l-1.641-4.009h-1.487l2.463 5.6-1.4 3.116h1.439l3.794-8.719zm-12.43 5.916h1.379v-9.246h-1.379z" transform="translate(-10.688 -4.44)"/><g id="Group_668" transform="translate(3738.819 -1897.857)"><path id="Path_1438" fill="url(#linear-gradient)" d="M3741.758-1895.619a1.482 1.482 0 00-.342 1.039v16.357a1.479 1.479 0 00.342 1.039l.055.053 9.163-9.162v-.217l-9.163-9.163z" transform="translate(-3741.416 1895.912)"/><path id="Path_1439" fill="url(#linear-gradient-2)" d="M3757.4-1881.087l-3.054-3.055v-.217l3.055-3.054.069.039 3.619 2.056a1.123 1.123 0 010 2.136l-3.619 2.056z" transform="translate(-3744.782 1893.762)"/><path id="Path_1440" fill="url(#linear-gradient-3)" d="M3754.22-1880.013l-3.124-3.124-9.217 9.217a1.2 1.2 0 001.537.046l10.8-6.139" transform="translate(-3741.537 1892.648)"/><path id="Path_1441" fill="url(#linear-gradient-4)" d="M3754.22-1889.61l-10.8-6.139a1.2 1.2 0 00-1.537.045l9.217 9.218z" transform="translate(-3741.537 1895.997)"/><g id="Group_667" transform="translate(0 12.566)"><path id="Path_1442" fill="#040505" d="M3754.151-1879.006l-10.735 6.1a1.233 1.233 0 01-1.482.007l-.055.056.055.053a1.232 1.232 0 001.482-.007l10.8-6.139z" transform="translate(-3741.537 1879.006)" style="isolation:isolate" opacity=".2"/><path id="Path_1443" d="M3741.758-1871.185a1.482 1.482 0 01-.342-1.039v.108a1.482 1.482 0 00.342 1.039l.055-.056z" class="cls-10" transform="translate(-3741.416 1877.24)"/></g><path id="Path_1444" d="M3762.16-1882.177l-3.688 2.1.069.069 3.619-2.056a1.3 1.3 0 00.775-1.067 1.377 1.377 0 01-.775.954z" class="cls-10" transform="translate(-3745.858 1892.648)"/><path id="Path_1445" fill="#fff" d="M3743.3-1895.64l14.423 8.195a1.376 1.376 0 01.775.959 1.3 1.3 0 00-.775-1.067l-14.423-8.195c-1.034-.588-1.879-.1-1.879 1.084v.108c-.005-1.184.84-1.671 1.879-1.084z" transform="translate(-3741.416 1895.997)" style="isolation:isolate" opacity=".25"/></g></g></svg>