<svg width="99" height="46" fill="none" xmlns="http://www.w3.org/2000/svg"><g clip-path="url(#clip0_700_4597)" fill="#065C9E"><path d="M17.369 14.054c2.64 0 4.855 1.756 4.855 5.01 0 .227 0 .39-.032.715h-7.919c.098 1.66 1.434 2.733 3.096 2.733 1.401 0 2.379-.65 2.9-1.529l1.695 1.204c-.913 1.431-2.477 2.342-4.595 2.342-3.063 0-5.28-2.18-5.28-5.238 0-2.96 2.217-5.237 5.28-5.237zm-2.998 4.099h5.605c-.228-1.464-1.401-2.245-2.705-2.245-1.303 0-2.574.748-2.9 2.245zm4.269-8.946h2.672l-2.998 3.838h-1.695l2.02-3.838zm29.067 4.847c1.466 0 2.672.748 3.226 1.561V14.25h2.216v10.085h-2.216v-1.366c-.554.813-1.792 1.561-3.226 1.561-2.77 0-4.855-2.375-4.855-5.238 0-2.862 2.085-5.237 4.855-5.237zm.391 2.017c-1.792 0-2.998 1.399-2.998 3.22 0 1.822 1.206 3.221 2.998 3.221 1.792 0 2.998-1.399 2.998-3.22.033-1.822-1.206-3.221-2.998-3.221zm16.914-1.822h2.216v1.79c.39-1.14 1.499-1.888 2.672-1.888.293 0 .554.033.88.065v2.278a3.313 3.313 0 00-1.108-.195c-1.271 0-2.412 1.073-2.412 3.09v4.912h-2.216V14.25h-.032zm18.378-.195c2.64 0 4.855 1.757 4.855 5.01 0 .227 0 .39-.032.715H80.26c.098 1.66 1.434 2.733 3.096 2.733 1.401 0 2.379-.65 2.9-1.529l1.695 1.204c-.913 1.431-2.477 2.342-4.595 2.342-3.063 0-5.279-2.18-5.279-5.238.033-2.96 2.216-5.237 5.312-5.237zm-2.998 4.099h5.605c-.228-1.464-1.402-2.245-2.705-2.245-1.303 0-2.607.748-2.9 2.245zM46.96 46c-1.792 0-3.324-.716-4.073-2.147l1.629-1.171c.391.878 1.401 1.399 2.411 1.399.782 0 1.467-.358 1.467-1.074 0-.585-.359-.943-1.564-1.301l-.88-.228c-1.76-.488-2.672-1.594-2.64-3.09.033-1.79 1.597-2.896 3.617-2.896 1.532 0 2.705.618 3.422 1.724l-1.531 1.172c-.457-.619-1.076-1.041-1.923-1.041-.652 0-1.369.357-1.369.943 0 .488.228.91 1.206 1.204l1.043.292c1.792.52 2.835 1.4 2.835 3.058 0 1.952-1.564 3.156-3.65 3.156zm5.7-10.28h2.216v5.66c0 1.627.717 2.603 2.02 2.603 1.434 0 2.477-1.139 2.477-3.318v-4.977h2.216v10.084h-2.216v-1.366c-.587 1.008-1.662 1.562-2.965 1.562-2.314 0-3.748-1.66-3.748-4.262V35.72zM73.808 46c-1.793 0-3.324-.716-4.074-2.147l1.63-1.171c.39.878 1.4 1.399 2.411 1.399.782 0 1.466-.358 1.466-1.074 0-.585-.358-.943-1.564-1.301l-.88-.228c-1.76-.488-2.672-1.594-2.639-3.09.033-1.79 1.597-2.896 3.617-2.896 1.532 0 2.705.618 3.422 1.725l-1.532 1.17c-.456-.617-1.075-1.04-1.922-1.04-.652 0-1.37.358-1.37.943 0 .488.229.91 1.207 1.204l1.042.292c1.793.521 2.835 1.4 2.835 3.058.033 1.952-1.564 3.156-3.65 3.156zm9.484 0c-1.792 0-3.324-.716-4.073-2.147l1.63-1.171c.39.878 1.4 1.399 2.41 1.399.782 0 1.467-.358 1.467-1.074 0-.585-.359-.943-1.564-1.301l-.88-.228c-1.76-.488-2.672-1.594-2.64-3.09.033-1.79 1.597-2.896 3.618-2.896 1.531 0 2.704.618 3.421 1.725l-1.531 1.17c-.457-.617-1.076-1.04-1.923-1.04-.652 0-1.369.358-1.369.943 0 .488.228.91 1.206 1.204l1.043.292c1.792.521 2.835 1.4 2.835 3.058 0 1.952-1.564 3.156-3.65 3.156zM94.01 35.525c2.64 0 4.856 1.757 4.856 5.01 0 .227 0 .39-.032.715h-7.952c.098 1.66 1.434 2.733 3.096 2.733 1.401 0 2.38-.65 2.9-1.529l1.695 1.204C97.66 45.089 96.096 46 93.978 46c-3.063 0-5.279-2.18-5.279-5.238.065-2.96 2.249-5.237 5.312-5.237zm-2.965 4.099h5.605c-.228-1.464-1.4-2.245-2.704-2.245-1.304 0-2.607.748-2.9 2.245zm-85.57-25.57c-1.467 0-2.673.748-3.26 1.561V14.25H0v15.485a2.196 2.196 0 002.216-2.212v-4.555c.554.814 1.792 1.562 3.259 1.562 2.77 0 4.855-2.375 4.855-5.238 0-2.863-2.086-5.237-4.855-5.237zm-.392 8.458c-1.792 0-3.03-1.399-3.03-3.22 0-1.822 1.238-3.221 3.03-3.221 1.793 0 2.998 1.399 2.998 3.22 0 1.822-1.238 3.221-2.998 3.221zM34.641 7.84a2.196 2.196 0 00-2.216 2.212v5.53c-.554-.813-1.792-1.56-3.226-1.56-2.77 0-4.855 2.374-4.855 5.237s2.053 5.27 4.823 5.27c1.466 0 2.672-.748 3.226-1.562v1.367h2.215V7.84h.033zm-5.05 14.672c-1.793 0-2.999-1.399-2.999-3.22 0-1.823 1.206-3.221 2.998-3.221 1.792 0 2.998 1.398 2.998 3.22 0 1.822-1.206 3.22-2.998 3.22zM62.405 16.2v-1.983h-2.9V10.41a2.216 2.216 0 00-2.216 2.212v1.595h-2.086V16.2h2.086v4.847c0 2.277 1.499 3.351 3.454 3.351.684 0 1.206-.065 1.662-.228v-1.984c-.326.13-.782.195-1.206.195-1.14 0-1.694-.456-1.694-1.724V16.2h2.9zM39.167 7.775a2.835 2.835 0 012.835 2.83 2.835 2.835 0 01-5.67 0c0-1.561 1.27-2.83 2.835-2.83zm35.259 5.563c3.69 0 6.68-2.986 6.68-6.669 0-3.683-2.99-6.669-6.68-6.669-3.69 0-6.68 2.986-6.68 6.669 0 3.683 2.99 6.669 6.68 6.669zm-.002.976c-.39 0-.75-.033-1.108-.098v10.085h2.216V14.216a6.66 6.66 0 01-1.108.098zm-8.402 20.56a4.623 4.623 0 004.627-4.62 4.623 4.623 0 00-4.627-4.619 4.623 4.623 0 00-4.628 4.62 4.623 4.623 0 004.628 4.62zm0 .944a6.11 6.11 0 01-1.108-.098v10.085h2.216V35.72a6.38 6.38 0 01-1.108.098zM39.17 14.412c-.39 0-.749-.065-1.108-.163v10.085h2.216V14.249a4.145 4.145 0 01-1.108.163z"/></g><defs><clipPath id="clip0_700_4597"><path fill="#fff" d="M0 0h98.9v46H0z"/></clipPath></defs></svg>