<svg xmlns="http://www.w3.org/2000/svg" width="83.076" height="30"><defs><style>.cls-6{fill:#fff}</style></defs><g id="Group_672" transform="translate(-390.462 -141)"><g id="Layer_2"><path id="Rectangle_36" d="M0 0h82.644v29.567H0z" transform="translate(390.683 141.221)"/></g><g id="Layer_1"><path id="Rectangle_37" fill="#f25022" d="M0 0h8.058v8.058H0z" transform="translate(397.24 147.596)"/><path id="Rectangle_38" fill="#7fba00" d="M0 0h8.058v8.058H0z" transform="translate(406.135 147.596)"/><path id="Rectangle_39" fill="#00a4ef" d="M0 0h8.058v8.058H0z" transform="translate(397.24 156.481)"/><path id="Rectangle_40" fill="#ffb900" d="M0 0h8.058v8.058H0z" transform="translate(406.135 156.481)"/><path id="Path_1471" d="M429.721 156.673a.78.78 0 01.26-.6.907.907 0 011.24.01.812.812 0 01.25.586.76.76 0 01-.259.587.934.934 0 01-1.25 0 .831.831 0 01-.241-.587m1.587 7.865h-1.433v-6.1h1.433z" class="cls-6"/><path id="Path_1472" d="M435.673 163.49a2.086 2.086 0 00.712-.144 2.874 2.874 0 00.711-.394v1.336a2.8 2.8 0 01-.779.3 4.28 4.28 0 01-.961.1 2.913 2.913 0 01-3.039-3.029 3.466 3.466 0 01.866-2.423 3.125 3.125 0 012.442-.952 3.483 3.483 0 01.817.106 2.773 2.773 0 01.654.241v1.375a2.777 2.777 0 00-.683-.375 2.015 2.015 0 00-.711-.135 1.827 1.827 0 00-1.375.548 2.083 2.083 0 00-.519 1.49 1.978 1.978 0 00.5 1.443 1.8 1.8 0 001.365.509" class="cls-6"/><path id="Path_1473" d="M441.183 158.337a2.666 2.666 0 01.307.019c.087.019.173.038.231.057v1.452a1.179 1.179 0 00-.327-.153 1.634 1.634 0 00-.529-.077 1.1 1.1 0 00-.894.442 2.159 2.159 0 00-.365 1.375v3.086h-1.433v-6.1h1.433v.961h.019a1.644 1.644 0 01.6-.779 1.672 1.672 0 01.962-.278" class="cls-6"/><path id="Path_1474" d="M441.8 161.577a3.341 3.341 0 01.856-2.4 3.164 3.164 0 012.375-.885 2.948 2.948 0 012.24.856 3.206 3.206 0 01.808 2.3 3.263 3.263 0 01-.856 2.366 3.09 3.09 0 01-2.327.875 2.9 2.9 0 01-3.1-3.106m1.5-.048a2.187 2.187 0 00.433 1.461 1.539 1.539 0 001.24.5 1.439 1.439 0 001.192-.5 2.357 2.357 0 00.414-1.5 2.3 2.3 0 00-.423-1.49 1.465 1.465 0 00-1.192-.5 1.507 1.507 0 00-1.231.529 2.3 2.3 0 00-.433 1.5" class="cls-6"/><path id="Path_1475" d="M450.212 160.038a.629.629 0 00.192.481 3.7 3.7 0 00.865.443 2.925 2.925 0 011.212.778 1.611 1.611 0 01.346 1.039 1.667 1.667 0 01-.664 1.384 2.819 2.819 0 01-1.788.52 3.944 3.944 0 01-.837-.1 4.039 4.039 0 01-.778-.231v-1.414a3.33 3.33 0 00.846.433 2.5 2.5 0 00.817.163 1.528 1.528 0 00.721-.134.485.485 0 00.231-.462.616.616 0 00-.24-.5 3.5 3.5 0 00-.914-.471 2.78 2.78 0 01-1.125-.75 1.658 1.658 0 01-.336-1.058 1.683 1.683 0 01.653-1.355 2.591 2.591 0 011.7-.529 4.122 4.122 0 01.722.067 2.932 2.932 0 01.663.183v1.365a3.529 3.529 0 00-.663-.327 2.348 2.348 0 00-.75-.134 1.082 1.082 0 00-.635.163.5.5 0 00-.24.442" class="cls-6"/><path id="Path_1476" d="M453.462 161.577a3.341 3.341 0 01.855-2.4 3.167 3.167 0 012.375-.885 2.952 2.952 0 012.241.856 3.21 3.21 0 01.807 2.3 3.263 3.263 0 01-.855 2.366 3.093 3.093 0 01-2.327.875 2.9 2.9 0 01-3.1-3.106m1.49-.048a2.187 2.187 0 00.433 1.461 1.539 1.539 0 001.24.5 1.439 1.439 0 001.192-.5 2.357 2.357 0 00.414-1.5 2.3 2.3 0 00-.423-1.49 1.466 1.466 0 00-1.193-.5 1.506 1.506 0 00-1.23.529 2.3 2.3 0 00-.433 1.5" class="cls-6"/><path id="Path_1477" d="M464.481 159.615v3.135a2.1 2.1 0 00.452 1.462 1.766 1.766 0 001.365.48 2.824 2.824 0 00.625-.067 1.568 1.568 0 00.452-.144v-1.193a1.311 1.311 0 01-.308.145 1.01 1.01 0 01-.3.057.826.826 0 01-.644-.23 1.223 1.223 0 01-.2-.8v-2.856h1.462v-1.173h-1.452v-1.808l-1.443.442v1.375h-2.144v-.74a1.259 1.259 0 01.241-.837.852.852 0 01.692-.278 1.4 1.4 0 01.413.057 1.371 1.371 0 01.25.106v-1.24a1.712 1.712 0 00-.355-.077 3.19 3.19 0 00-.462-.029 2.177 2.177 0 00-1.606.615 2.133 2.133 0 00-.625 1.577v.846h-1.019v1.173h1.019v4.933h1.452v-4.933z" class="cls-6"/><path id="Path_1478" d="M428.49 156.019v8.519h-1.48v-6.673h-.019l-2.644 6.673h-.981l-2.712-6.673h-.019v6.673h-1.365v-8.519h2.115l2.452 6.317h.038l2.587-6.317z" class="cls-6"/><path id="Path_1479" d="M423.154 152.337a3.458 3.458 0 01-1.731.432 2.569 2.569 0 01-1.308-.327 2.166 2.166 0 01-.875-.913 3.041 3.041 0 01.029-2.721 2.413 2.413 0 01.952-.962 2.8 2.8 0 011.394-.346 4.277 4.277 0 01.779.077 2.629 2.629 0 01.635.192v.769a2.581 2.581 0 00-1.471-.384 1.828 1.828 0 00-.962.259 1.762 1.762 0 00-.663.712 2.289 2.289 0 00-.231 1.038 2.088 2.088 0 00.481 1.443 1.673 1.673 0 001.317.529 1.974 1.974 0 00.942-.212v-1.317h-1.086v-.635h1.8z" class="cls-6"/><path id="Path_1480" d="M427.3 151.058h-2.519a1.227 1.227 0 00.317.846 1.1 1.1 0 00.789.3 1.81 1.81 0 001.134-.375v.615a1.82 1.82 0 01-.548.241 2.743 2.743 0 01-.683.086 1.65 1.65 0 01-1.278-.49 1.985 1.985 0 01-.452-1.385 2.208 2.208 0 01.221-.99 1.659 1.659 0 01.615-.692 1.625 1.625 0 01.875-.25 1.41 1.41 0 011.116.461 1.874 1.874 0 01.4 1.279v.356zm-.7-.548a1.063 1.063 0 00-.221-.722.776.776 0 00-.615-.25.9.9 0 00-.635.26 1.278 1.278 0 00-.346.712z" class="cls-6"/><path id="Path_1481" d="M430.029 152.644a.777.777 0 01-.279.087 1.964 1.964 0 01-.317.029c-.673 0-1.01-.375-1.01-1.116v-2.019h-.615v-.577h.615v-.865l.7-.221v1.076h.894v.577h-.894v1.9a.846.846 0 00.115.51.5.5 0 00.414.144.612.612 0 00.365-.115v.586z" class="cls-6"/><path id="Path_1482" d="M433.51 147.76a.4.4 0 01-.125.3.466.466 0 01-.635 0 .392.392 0 01-.125-.308.4.4 0 01.135-.308.461.461 0 01.307-.125.423.423 0 01.308.125.417.417 0 01.135.318m-.1 4.923h-.7v-3.635h.7z" class="cls-6"/><path id="Path_1483" d="M436.462 152.644a.784.784 0 01-.279.087 1.976 1.976 0 01-.318.029c-.673 0-1.009-.375-1.009-1.116v-2.019h-.616v-.577h.616v-.865l.7-.221v1.076h.894v.577h-.894v1.9a.846.846 0 00.115.51.5.5 0 00.414.144.612.612 0 00.365-.115v.586z" class="cls-6"/><path id="Path_1484" d="M441.058 147.894a.857.857 0 00-.385-.1c-.394 0-.586.24-.586.721v.519h.826v.577h-.826v3.058h-.7v-3.048h-.616v-.577h.616v-.558a1.273 1.273 0 01.327-.923 1.19 1.19 0 01.9-.346 1.177 1.177 0 01.452.067v.606z" class="cls-6"/><path id="Path_1485" d="M443.644 149.75a.766.766 0 00-.211-.087 1.468 1.468 0 00-.25-.038.711.711 0 00-.606.337 1.482 1.482 0 00-.231.865v1.856h-.7v-3.635h.7v.731h.019a1.255 1.255 0 01.366-.587.833.833 0 01.567-.211 1 1 0 01.337.048v.721z" class="cls-6"/><path id="Path_1486" d="M447.654 150.846a1.933 1.933 0 01-.51 1.4 1.8 1.8 0 01-1.346.519 1.761 1.761 0 01-1.317-.509 1.864 1.864 0 01-.491-1.356 1.949 1.949 0 01.51-1.423 1.843 1.843 0 011.385-.519 1.658 1.658 0 011.288.5 1.9 1.9 0 01.481 1.384m-.721.019a1.507 1.507 0 00-.279-.98.994.994 0 00-.8-.337 1.022 1.022 0 00-.827.356 1.468 1.468 0 00-.3.99 1.405 1.405 0 00.3.962 1.032 1.032 0 00.827.346.985.985 0 00.807-.337 1.663 1.663 0 00.27-1" class="cls-6"/><path id="Path_1487" d="M453.933 152.683h-.7v-2.068a1.5 1.5 0 00-.173-.817.663.663 0 00-.6-.25.708.708 0 00-.587.317 1.22 1.22 0 00-.24.76v2.058h-.7v-2.135c0-.663-.26-1-.77-1a.726.726 0 00-.6.308 1.247 1.247 0 00-.23.779v2.057h-.7v-3.644h.7v.567h.009a1.24 1.24 0 011.135-.653 1.142 1.142 0 01.634.192 1.1 1.1 0 01.4.538 1.514 1.514 0 01.51-.557 1.381 1.381 0 01.7-.183c.8 0 1.192.49 1.192 1.481v2.25z" class="cls-6"/></g></g></svg>