<svg xmlns="http://www.w3.org/2000/svg" width="18.05" height="18.05"><path d="M7.11 0h3.827l.288.009c.357.009.715.015 1.072.027.39.013.78.029 1.168.078a6.36 6.36 0 011.188.259 4.64 4.64 0 011.819 1.078 4.67 4.67 0 011.227 2.009 6.721 6.721 0 01.289 1.72c.027.625.037 1.252.056 1.877 0 .022 0 .043.006.065v3.808a.27.27 0 00-.006.041v.3c-.008.343-.014.686-.026 1.029-.013.39-.029.781-.078 1.169a6.025 6.025 0 01-.307 1.327 4.548 4.548 0 01-2.65 2.765 6.153 6.153 0 01-1.989.422 42.497 42.497 0 01-2.504.068q-1.7 0-3.4-.005-.536 0-1.072-.019t-1.042-.05a6.546 6.546 0 01-1.175-.181 4.723 4.723 0 01-2.382-1.36 4.562 4.562 0 01-.87-1.325 6.02 6.02 0 01-.462-1.98 38.36 38.36 0 01-.079-2.646q0-2.053.015-4.106c0-.281.017-.563.028-.844a10.518 10.518 0 01.088-1.092A5.771 5.771 0 01.53 2.992 4.522 4.522 0 012.701.661 5.686 5.686 0 014.835.09c.324-.027.65-.044.975-.055.416-.014.832-.018 1.248-.027L7.11 0zm1.914 1.627H7.472c-.448 0-.9.005-1.343.02q-.625.021-1.25.068a4.1 4.1 0 00-1.063.228 2.946 2.946 0 00-1.819 1.733A4.6 4.6 0 001.69 5.16c-.027.477-.041.954-.055 1.432-.009.331-.01.661-.01.992v2.958q0 .823.029 1.646c.011.354.035.707.067 1.06a4.015 4.015 0 00.238 1.037 2.935 2.935 0 001.6 1.72 4.487 4.487 0 001.6.353 45.035 45.035 0 002.58.064h2.806q.818 0 1.637-.029c.354-.011.707-.035 1.06-.067a3.976 3.976 0 001.037-.238 2.937 2.937 0 001.746-1.665 4.555 4.555 0 00.327-1.532c.027-.473.042-.948.055-1.422.009-.327.01-.655.01-.982v-3c0-.451-.005-.9-.02-1.352q-.021-.625-.068-1.25a4.124 4.124 0 00-.228-1.063 2.94 2.94 0 00-1.624-1.773 4.48 4.48 0 00-1.6-.353 44.72 44.72 0 00-1.417-.054c-.387-.01-.775-.009-1.163-.01-.421-.006-.847-.005-1.272-.005z"/><path d="M13.66 9.026a4.633 4.633 0 01-4.666 4.634 4.628 4.628 0 01-4.6-4.671 4.628 4.628 0 014.677-4.6 4.633 4.633 0 014.589 4.637zm-7.644 0a3.013 3.013 0 002.992 3.009 3.014 3.014 0 003.026-2.989A3.007 3.007 0 009.04 6.018a3.006 3.006 0 00-3.025 3.009zm7.825-3.737a1.076 1.076 0 01-1.08-1.087 1.076 1.076 0 011.1-1.076 1.083 1.083 0 011.068 1.1 1.084 1.084 0 01-1.088 1.063z"/></svg>