<svg xmlns="http://www.w3.org/2000/svg" width="17.974" height="17.181"><defs><style>.cls-1{fill:#0188c0;fill-rule:evenodd}</style></defs><g id="Group_896" transform="translate(-2157.832 -80.73)"><path id="Path_1808" d="M2159.986 84.736a2.147 2.147 0 10-.025 0zm1.927 13.175V86.318h-3.853v11.593z" class="cls-1"/><path id="Path_1809" d="M2249.465 171h3.853v-6.474a2.632 2.632 0 01.127-.94 2.108 2.108 0 011.977-1.409c1.395 0 1.952 1.063 1.952 2.621V171h3.853v-6.647c0-3.561-1.9-5.217-4.436-5.217a3.838 3.838 0 00-3.5 1.953h.026v-1.681h-3.853c.05 1.088 0 11.592 0 11.592z" class="cls-1" transform="translate(-85.42 -73.091)"/></g></svg>