<svg xmlns="http://www.w3.org/2000/svg" width="13.995" height="17.806"><path fill="#d50000" d="M12.18 1.825A6.828 6.828 0 007.407 0a7.508 7.508 0 00-5.54 2.135A6.309 6.309 0 000 6.508c0 1.982.829 3.5 2.217 4.069a.734.734 0 00.279.057.62.62 0 00.605-.5c.047-.176.155-.611.2-.8a.751.751 0 00-.2-.812 2.588 2.588 0 01-.589-1.768 4.451 4.451 0 014.615-4.48c2.378 0 3.856 1.352 3.856 3.528a7.33 7.33 0 01-.833 3.581 2.463 2.463 0 01-2.037 1.426 1.351 1.351 0 01-1.074-.491 1.235 1.235 0 01-.216-1.073c.106-.449.251-.917.39-1.369a8.475 8.475 0 00.5-2.23 1.619 1.619 0 00-1.63-1.781c-1.239 0-2.209 1.258-2.209 2.864a4.259 4.259 0 00.3 1.6c-.156.661-1.083 4.592-1.259 5.333-.1.433-.714 3.85.3 4.123 1.139.306 2.158-3.022 2.262-3.4.084-.306.378-1.462.558-2.173a3.445 3.445 0 002.3.888 5.124 5.124 0 004.114-2.058 8.263 8.263 0 001.547-5.053 5.827 5.827 0 00-1.816-4.164z"/></svg>