<svg xmlns="http://www.w3.org/2000/svg" width="18" height="18"><path fill="#4285f4" fill-rule="evenodd" d="M17.64 9.2a10.275 10.275 0 00-.164-1.841H9v3.481h4.844a4.141 4.141 0 01-1.8 2.716v2.264h2.908A8.779 8.779 0 0017.64 9.2z"/><path fill="#34a853" fill-rule="evenodd" d="M9 18a8.594 8.594 0 005.956-2.18l-2.908-2.259a5.43 5.43 0 01-8.084-2.851H.957v2.332A9 9 0 009 18z"/><path fill="#fbbc05" fill-rule="evenodd" d="M3.964 10.71a5.326 5.326 0 010-3.42V4.958H.957a9.014 9.014 0 000 8.084l3.007-2.332z"/><path fill="#ea4335" fill-rule="evenodd" d="M9 3.58a4.863 4.863 0 013.44 1.345l2.582-2.581A8.652 8.652 0 009 0 9 9 0 00.957 4.958L3.964 7.29A5.364 5.364 0 019 3.58z"/><path fill="none" d="M0 0h18v18H0z"/></svg>