<svg xmlns="http://www.w3.org/2000/svg" width="18" height="14.628"><path fill="#1fabf4" d="M18 1.732a7.384 7.384 0 01-2.121.581A3.707 3.707 0 0017.503.271a7.4 7.4 0 01-2.345.9A3.7 3.7 0 008.865 4.54 10.49 10.49 0 011.252.681a3.7 3.7 0 001.144 4.931A3.7 3.7 0 01.723 5.15v.047a3.7 3.7 0 002.962 3.621 3.682 3.682 0 01-.973.13 3.622 3.622 0 01-.695-.067 3.7 3.7 0 003.449 2.564A7.409 7.409 0 01.88 13.026a7.6 7.6 0 01-.881-.051 10.5 10.5 0 0016.167-8.849c0-.159 0-.319-.01-.477A7.535 7.535 0 0018 1.732z"/></svg>